<svg width="20" height="20" viewBox="0 0 20 20" fill="none" xmlns="http://www.w3.org/2000/svg">
<path d="M18.3333 0H1.66667C0.746192 0 0 0.746192 0 1.66667V18.3333C0 19.2538 0.746192 20 1.66667 20H10.0333V12.2471H7.67778V9.41176H10.0333V7.37778C10.0333 4.93333 11.5889 3.37778 13.7556 3.37778C14.8 3.37778 15.7 3.44444 15.9556 3.46667V5.96667H14.4444C13.2667 5.96667 13.0111 6.41111 13.0111 7.13333V9.41176H15.8222L15.3444 12.2471H13.0111V20H18.3333C19.2538 20 20 19.2538 20 18.3333V1.66667C20 0.746192 19.2538 0 18.3333 0Z" fill="white"/>
</svg>
